<?xml version="1.0" encoding="utf-8"?>
<svg width="512px" height="512px" viewBox="0 0 512 512" style="enable-background:new 0 0 512 512;" xmlns="http://www.w3.org/2000/svg">
  <ellipse transform="matrix(-0.7524309754371643, 0.6586710214614868, -0.6586710214614868, -0.7524309754371643, 359.6052551269531, 258.7638244628906)" cx="72.167" cy="71.065" rx="235.021" ry="235.021" style="fill: rgb(255, 255, 255);"/>
  <g transform="matrix(1, 0, 0, 1, 0, 7.105427357601002e-15)">
    <path d="M256,0C114.609,0,0,114.609,0,256c0,141.391,114.609,256,256,256c141.391,0,256-114.609,256-256&#10;&#9;&#9;C512,114.609,397.391,0,256,0z M256,472c-119.297,0-216-96.703-216-216S136.703,40,256,40s216,96.703,216,216S375.297,472,256,472z&#10;&#9;&#9;" style="fill: rgb(225, 82, 61);"/>
    <g>
      <g>
        <path d="M128.094,383.891h48v-192h-48V383.891z M320.094,191.891c-41.094,0.688-61.312,30.641-64,32v-32h-48v192h48v-112&#10;&#9;&#9;&#9;&#9;c0-4.108,10.125-37,48-32c20.344,1.328,31.312,28.234,32,32v112l47.812,0.219V251.188&#10;&#9;&#9;&#9;&#9;C382.219,232,372.625,192.578,320.094,191.891z M152.094,127.891c-13.25,0-24,10.734-24,24s10.75,24,24,24s24-10.734,24-24&#10;&#9;&#9;&#9;&#9;S165.344,127.891,152.094,127.891z" style="fill: rgb(225, 82, 61);"/>
      </g>
    </g>
  </g>
</svg>