<?xml version="1.0" encoding="utf-8"?>
<svg width="49.652px" height="49.652px" viewBox="0 0 49.652 49.652" xmlns="http://www.w3.org/2000/svg">
  <ellipse transform="matrix(-0.6622849702835083, 0.7492520213127136, -0.7492520213127136, -0.6622849702835083, 51.60285186767578, 21.99127769470215)" cx="20.384" cy="19.145" rx="20.588" ry="20.588" style="fill: rgb(255, 255, 255);"/>
  <path d="M 24.826 0 C 11.137 0 0 11.137 0 24.826 C 0 38.514 11.137 49.652 24.826 49.652 C 38.514 49.652 49.652 38.514 49.652 24.826 C 49.652 11.137 38.516 0 24.826 0 Z M 35.901 19.144 C 35.912 19.39 35.918 19.638 35.918 19.886 C 35.918 27.437 30.172 36.141 19.659 36.141 C 16.432 36.141 13.428 35.198 10.9 33.576 C 11.347 33.629 11.802 33.656 12.263 33.656 C 14.941 33.656 17.404 32.742 19.36 31.21 C 16.86 31.164 14.749 29.512 14.022 27.241 C 14.37 27.307 14.729 27.344 15.096 27.344 C 15.617 27.344 16.123 27.276 16.602 27.145 C 13.988 26.621 12.019 24.312 12.019 21.542 C 12.019 21.518 12.019 21.493 12.02 21.47 C 12.79 21.897 13.671 22.155 14.607 22.184 C 13.075 21.161 12.066 19.411 12.066 17.429 C 12.066 16.381 12.347 15.399 12.839 14.555 C 15.656 18.013 19.868 20.287 24.616 20.527 C 24.518 20.108 24.469 19.673 24.469 19.224 C 24.469 16.069 27.027 13.51 30.182 13.51 C 31.826 13.51 33.309 14.204 34.353 15.314 C 35.656 15.058 36.876 14.584 37.983 13.927 C 37.553 15.262 36.65 16.381 35.467 17.089 C 36.624 16.951 37.728 16.645 38.749 16.19 C 37.987 17.334 37.018 18.341 35.901 19.144 Z" style="fill: rgb(225, 82, 61);" transform="matrix(1, 0, 0, 1, -4.440892098500626e-16, 0)"/>
</svg>